<?xml version="1.0" encoding="UTF-8" standalone="no"?>
<!DOCTYPE svg PUBLIC "-//W3C//DTD SVG 1.1//EN"
 "http://www.w3.org/Graphics/SVG/1.1/DTD/svg11.dtd">
<!-- Generated by graphviz version 2.40.1 (20161225.0304)
 -->
<!-- Title: state transitions Pages: 1 -->
<svg width="257pt" height="692pt"
 viewBox="0.00 0.00 257.00 692.00" xmlns="http://www.w3.org/2000/svg" xmlns:xlink="http://www.w3.org/1999/xlink">
<g id="graph0" class="graph" transform="scale(1 1) rotate(0) translate(4 688)">
<title>state transitions</title>
<polygon fill="#ffffff" stroke="transparent" points="-4,4 -4,-688 253,-688 253,4 -4,4"/>
<g id="clust1" class="cluster state regular">
<title>cluster_n_state</title>
<path fill="none" stroke="#000000" stroke-width="2" d="M20,-8C20,-8 229,-8 229,-8 235,-8 241,-14 241,-20 241,-20 241,-664 241,-664 241,-670 235,-676 229,-676 229,-676 20,-676 20,-676 14,-676 8,-670 8,-664 8,-664 8,-20 8,-20 8,-14 14,-8 20,-8"/>
<text text-anchor="start" x="105.3236" y="-657.2" font-family="Helvetica,sans-Serif" font-size="12.00" fill="#000000">n_state</text>
</g>
<!-- n_state -->
<!-- S0 -->
<g id="node2" class="node state regular">
<title>S0</title>
<polygon fill="#ffffff" fill-opacity="0.003922" stroke="transparent" stroke-width="2" points="98,-556 42,-556 42,-520 98,-520 98,-556"/>
<text text-anchor="start" x="62.6632" y="-534.2" font-family="Helvetica,sans-Serif" font-size="12.00" fill="#000000">S0</text>
<path fill="none" stroke="#000000" stroke-width="2" d="M54.3333,-521C54.3333,-521 85.6667,-521 85.6667,-521 91.3333,-521 97,-526.6667 97,-532.3333 97,-532.3333 97,-543.6667 97,-543.6667 97,-549.3333 91.3333,-555 85.6667,-555 85.6667,-555 54.3333,-555 54.3333,-555 48.6667,-555 43,-549.3333 43,-543.6667 43,-543.6667 43,-532.3333 43,-532.3333 43,-526.6667 48.6667,-521 54.3333,-521"/>
</g>
<!-- S0&#45;&gt;S0 -->
<g id="edge2" class="edge transition">
<title>S0&#45;&gt;S0</title>
<path fill="none" stroke="#000000" d="M98.0183,-542.8247C109.888,-543.1883 120,-541.5801 120,-538 120,-535.5387 115.2205,-534.0094 108.3762,-533.4121"/>
<polygon fill="#000000" stroke="#000000" points="108.0957,-529.9049 98.0183,-533.1753 107.9356,-536.903 108.0957,-529.9049"/>
<text text-anchor="start" x="120" y="-535" font-family="Helvetica,sans-Serif" font-size="10.00" fill="#000000">not (s_axi_valid == 1&#39;b1) &#160;&#160;</text>
</g>
<!-- S1 -->
<g id="node3" class="node state regular">
<title>S1</title>
<polygon fill="#ffffff" fill-opacity="0.003922" stroke="transparent" stroke-width="2" points="98,-474 42,-474 42,-438 98,-438 98,-474"/>
<text text-anchor="start" x="62.6632" y="-452.2" font-family="Helvetica,sans-Serif" font-size="12.00" fill="#000000">S1</text>
<path fill="none" stroke="#000000" stroke-width="2" d="M54.3333,-439C54.3333,-439 85.6667,-439 85.6667,-439 91.3333,-439 97,-444.6667 97,-450.3333 97,-450.3333 97,-461.6667 97,-461.6667 97,-467.3333 91.3333,-473 85.6667,-473 85.6667,-473 54.3333,-473 54.3333,-473 48.6667,-473 43,-467.3333 43,-461.6667 43,-461.6667 43,-450.3333 43,-450.3333 43,-444.6667 48.6667,-439 54.3333,-439"/>
</g>
<!-- S0&#45;&gt;S1 -->
<g id="edge1" class="edge transition">
<title>S0&#45;&gt;S1</title>
<path fill="none" stroke="#000000" d="M70,-519.8015C70,-509.3976 70,-496.1215 70,-484.3768"/>
<polygon fill="#000000" stroke="#000000" points="73.5001,-484.1476 70,-474.1476 66.5001,-484.1476 73.5001,-484.1476"/>
<text text-anchor="start" x="70" y="-494" font-family="Helvetica,sans-Serif" font-size="10.00" fill="#000000">s_axi_valid == 1&#39;b1 &#160;&#160;</text>
</g>
<!-- S2 -->
<g id="node4" class="node state regular">
<title>S2</title>
<polygon fill="#ffffff" fill-opacity="0.003922" stroke="transparent" stroke-width="2" points="90,-392 34,-392 34,-356 90,-356 90,-392"/>
<text text-anchor="start" x="54.6632" y="-370.2" font-family="Helvetica,sans-Serif" font-size="12.00" fill="#000000">S2</text>
<path fill="none" stroke="#000000" stroke-width="2" d="M46.3333,-357C46.3333,-357 77.6667,-357 77.6667,-357 83.3333,-357 89,-362.6667 89,-368.3333 89,-368.3333 89,-379.6667 89,-379.6667 89,-385.3333 83.3333,-391 77.6667,-391 77.6667,-391 46.3333,-391 46.3333,-391 40.6667,-391 35,-385.3333 35,-379.6667 35,-379.6667 35,-368.3333 35,-368.3333 35,-362.6667 40.6667,-357 46.3333,-357"/>
</g>
<!-- S1&#45;&gt;S2 -->
<g id="edge3" class="edge transition">
<title>S1&#45;&gt;S2</title>
<path fill="none" stroke="#000000" d="M65.9074,-437.9211C64.8422,-432.5074 63.825,-426.5375 63.221,-421 62.5793,-415.1171 62.2032,-408.7967 61.9936,-402.7585"/>
<polygon fill="#000000" stroke="#000000" points="65.4843,-402.2741 61.7749,-392.3498 58.4858,-402.4212 65.4843,-402.2741"/>
<text text-anchor="middle" x="64.3895" y="-412" font-family="Helvetica,sans-Serif" font-size="10.00" fill="#000000"> </text>
</g>
<!-- S2&#45;&gt;S1 -->
<g id="edge4" class="edge transition">
<title>S2&#45;&gt;S1</title>
<path fill="none" stroke="#000000" d="M65.6987,-392.1491C66.1735,-394.7769 66.6242,-397.4535 67,-400 68.552,-410.5154 69.1273,-414.5856 69.7948,-427.8113"/>
<polygon fill="#000000" stroke="#000000" points="66.3067,-428.1539 70.258,-437.9843 73.2994,-427.8354 66.3067,-428.1539"/>
<text text-anchor="start" x="69" y="-412" font-family="Helvetica,sans-Serif" font-size="10.00" fill="#000000">shift_cnt &lt; 63 &#160;&#160;</text>
</g>
<!-- S3 -->
<g id="node5" class="node state regular">
<title>S3</title>
<polygon fill="#ffffff" fill-opacity="0.003922" stroke="transparent" stroke-width="2" points="90,-310 34,-310 34,-274 90,-274 90,-310"/>
<text text-anchor="start" x="54.6632" y="-288.2" font-family="Helvetica,sans-Serif" font-size="12.00" fill="#000000">S3</text>
<path fill="none" stroke="#000000" stroke-width="2" d="M46.3333,-275C46.3333,-275 77.6667,-275 77.6667,-275 83.3333,-275 89,-280.6667 89,-286.3333 89,-286.3333 89,-297.6667 89,-297.6667 89,-303.3333 83.3333,-309 77.6667,-309 77.6667,-309 46.3333,-309 46.3333,-309 40.6667,-309 35,-303.3333 35,-297.6667 35,-297.6667 35,-286.3333 35,-286.3333 35,-280.6667 40.6667,-275 46.3333,-275"/>
</g>
<!-- S2&#45;&gt;S3 -->
<g id="edge5" class="edge transition">
<title>S2&#45;&gt;S3</title>
<path fill="none" stroke="#000000" d="M62,-355.8015C62,-345.3976 62,-332.1215 62,-320.3768"/>
<polygon fill="#000000" stroke="#000000" points="65.5001,-320.1476 62,-310.1476 58.5001,-320.1476 65.5001,-320.1476"/>
<text text-anchor="start" x="62" y="-330" font-family="Helvetica,sans-Serif" font-size="10.00" fill="#000000">not (shift_cnt &lt; 63) &#160;&#160;</text>
</g>
<!-- S3&#45;&gt;S3 -->
<g id="edge6" class="edge transition">
<title>S3&#45;&gt;S3</title>
<path fill="none" stroke="#000000" d="M90.0183,-296.8247C101.888,-297.1883 112,-295.5801 112,-292 112,-289.5387 107.2205,-288.0094 100.3762,-287.4121"/>
<polygon fill="#000000" stroke="#000000" points="100.0957,-283.9049 90.0183,-287.1753 99.9356,-290.903 100.0957,-283.9049"/>
<text text-anchor="start" x="112" y="-295" font-family="Helvetica,sans-Serif" font-size="10.00" fill="#000000">timer &gt; 0 &#160;&#160;</text>
<text text-anchor="start" x="112" y="-283" font-family="Helvetica,sans-Serif" font-size="10.00" fill="#000000">addr_cnt == 7 &#160;&#160;</text>
</g>
<!-- S4 -->
<g id="node6" class="node state regular">
<title>S4</title>
<polygon fill="#ffffff" fill-opacity="0.003922" stroke="transparent" stroke-width="2" points="72,-216 16,-216 16,-180 72,-180 72,-216"/>
<text text-anchor="start" x="36.6632" y="-194.2" font-family="Helvetica,sans-Serif" font-size="12.00" fill="#000000">S4</text>
<path fill="none" stroke="#000000" stroke-width="2" d="M28.3333,-181C28.3333,-181 59.6667,-181 59.6667,-181 65.3333,-181 71,-186.6667 71,-192.3333 71,-192.3333 71,-203.6667 71,-203.6667 71,-209.3333 65.3333,-215 59.6667,-215 59.6667,-215 28.3333,-215 28.3333,-215 22.6667,-215 17,-209.3333 17,-203.6667 17,-203.6667 17,-192.3333 17,-192.3333 17,-186.6667 22.6667,-181 28.3333,-181"/>
</g>
<!-- S3&#45;&gt;S4 -->
<g id="edge7" class="edge transition">
<title>S3&#45;&gt;S4</title>
<path fill="none" stroke="#000000" d="M58.4277,-273.8384C57.3683,-268.4224 56.2103,-262.472 55.158,-257 53.2208,-246.9261 51.1242,-235.879 49.2769,-226.0954"/>
<polygon fill="#000000" stroke="#000000" points="52.6811,-225.2598 47.3897,-216.081 45.8022,-226.5562 52.6811,-225.2598"/>
<text text-anchor="start" x="55" y="-248" font-family="Helvetica,sans-Serif" font-size="10.00" fill="#000000">not (timer &gt; 0) &#160;&#160;</text>
<text text-anchor="start" x="55" y="-236" font-family="Helvetica,sans-Serif" font-size="10.00" fill="#000000">addr_cnt == 7 &#160;&#160;</text>
</g>
<!-- S5 -->
<g id="node7" class="node state regular">
<title>S5</title>
<polygon fill="#ffffff" fill-opacity="0.003922" stroke="transparent" stroke-width="2" points="144,-134 88,-134 88,-98 144,-98 144,-134"/>
<text text-anchor="start" x="108.6632" y="-112.2" font-family="Helvetica,sans-Serif" font-size="12.00" fill="#000000">S5</text>
<path fill="none" stroke="#000000" stroke-width="2" d="M100.3333,-99C100.3333,-99 131.6667,-99 131.6667,-99 137.3333,-99 143,-104.6667 143,-110.3333 143,-110.3333 143,-121.6667 143,-121.6667 143,-127.3333 137.3333,-133 131.6667,-133 131.6667,-133 100.3333,-133 100.3333,-133 94.6667,-133 89,-127.3333 89,-121.6667 89,-121.6667 89,-110.3333 89,-110.3333 89,-104.6667 94.6667,-99 100.3333,-99"/>
</g>
<!-- S3&#45;&gt;S5 -->
<g id="edge8" class="edge transition">
<title>S3&#45;&gt;S5</title>
<path fill="none" stroke="#000000" d="M90.1929,-284.3045C103.8438,-279.0022 118.9819,-270.4241 127,-257 137.9539,-238.6607 128.9356,-180.1129 122.0344,-144.4873"/>
<polygon fill="#000000" stroke="#000000" points="125.3777,-143.3567 119.9851,-134.2369 118.5136,-144.7291 125.3777,-143.3567"/>
<text text-anchor="start" x="131" y="-195" font-family="Helvetica,sans-Serif" font-size="10.00" fill="#000000">not (addr_cnt == 7) &#160;&#160;</text>
</g>
<!-- S4&#45;&gt;S5 -->
<g id="edge9" class="edge transition">
<title>S4&#45;&gt;S5</title>
<path fill="none" stroke="#000000" d="M59.9791,-179.8015C69.7668,-168.6545 82.4495,-154.2103 93.2716,-141.8851"/>
<polygon fill="#000000" stroke="#000000" points="96.0975,-143.9713 100.0655,-134.1476 90.8374,-139.3527 96.0975,-143.9713"/>
<text text-anchor="middle" x="85.3895" y="-154" font-family="Helvetica,sans-Serif" font-size="10.00" fill="#000000"> </text>
</g>
<!-- S5&#45;&gt;S5 -->
<g id="edge10" class="edge transition">
<title>S5&#45;&gt;S5</title>
<path fill="none" stroke="#000000" d="M144.0183,-120.8247C155.888,-121.1883 166,-119.5801 166,-116 166,-113.5387 161.2205,-112.0094 154.3762,-111.4121"/>
<polygon fill="#000000" stroke="#000000" points="154.0957,-107.9049 144.0183,-111.1753 153.9356,-114.903 154.0957,-107.9049"/>
<text text-anchor="start" x="166" y="-113" font-family="Helvetica,sans-Serif" font-size="10.00" fill="#000000">timer &gt; 0 &#160;&#160;</text>
</g>
<!-- S6 -->
<g id="node8" class="node state regular">
<title>S6</title>
<polygon fill="#ffffff" fill-opacity="0.003922" stroke="transparent" stroke-width="2" points="189,-52 133,-52 133,-16 189,-16 189,-52"/>
<text text-anchor="start" x="153.6632" y="-30.2" font-family="Helvetica,sans-Serif" font-size="12.00" fill="#000000">S6</text>
<path fill="none" stroke="#000000" stroke-width="2" d="M145.3333,-17C145.3333,-17 176.6667,-17 176.6667,-17 182.3333,-17 188,-22.6667 188,-28.3333 188,-28.3333 188,-39.6667 188,-39.6667 188,-45.3333 182.3333,-51 176.6667,-51 176.6667,-51 145.3333,-51 145.3333,-51 139.6667,-51 134,-45.3333 134,-39.6667 134,-39.6667 134,-28.3333 134,-28.3333 134,-22.6667 139.6667,-17 145.3333,-17"/>
</g>
<!-- S5&#45;&gt;S6 -->
<g id="edge11" class="edge transition">
<title>S5&#45;&gt;S6</title>
<path fill="none" stroke="#000000" d="M125.987,-97.8015C131.9295,-86.973 139.5795,-73.033 146.2122,-60.9466"/>
<polygon fill="#000000" stroke="#000000" points="149.2983,-62.5981 151.041,-52.1476 143.1616,-59.2304 149.2983,-62.5981"/>
<text text-anchor="start" x="141" y="-72" font-family="Helvetica,sans-Serif" font-size="10.00" fill="#000000">not (timer &gt; 0) &#160;&#160;</text>
</g>
<!-- S6&#45;&gt;S0 -->
<g id="edge12" class="edge transition">
<title>S6&#45;&gt;S0</title>
<path fill="none" stroke="#000000" d="M189.0611,-38.6935C208.9068,-43.8053 232,-54.2184 232,-75 232,-171.5 232,-171.5 232,-171.5 232,-225.0629 230,-238.4371 230,-292 230,-497 230,-497 230,-497 230,-521.9929 155.8149,-531.9592 108.4735,-535.7747"/>
<polygon fill="#000000" stroke="#000000" points="107.9482,-532.3041 98.2365,-536.5387 108.4693,-539.2847 107.9482,-532.3041"/>
<text text-anchor="middle" x="231.3895" y="-289" font-family="Helvetica,sans-Serif" font-size="10.00" fill="#000000"> </text>
</g>
<!-- RST -->
<g id="node9" class="node state regular">
<title>RST</title>
<polygon fill="#ffffff" fill-opacity="0.003922" stroke="transparent" stroke-width="2" points="98,-638 42,-638 42,-602 98,-602 98,-638"/>
<text text-anchor="start" x="58.0018" y="-616.2" font-family="Helvetica,sans-Serif" font-size="12.00" fill="#000000">RST</text>
<path fill="none" stroke="#000000" stroke-width="2" d="M54.3333,-603C54.3333,-603 85.6667,-603 85.6667,-603 91.3333,-603 97,-608.6667 97,-614.3333 97,-614.3333 97,-625.6667 97,-625.6667 97,-631.3333 91.3333,-637 85.6667,-637 85.6667,-637 54.3333,-637 54.3333,-637 48.6667,-637 43,-631.3333 43,-625.6667 43,-625.6667 43,-614.3333 43,-614.3333 43,-608.6667 48.6667,-603 54.3333,-603"/>
</g>
<!-- RST&#45;&gt;S0 -->
<g id="edge14" class="edge transition">
<title>RST&#45;&gt;S0</title>
<path fill="none" stroke="#000000" d="M70,-601.8015C70,-591.3976 70,-578.1215 70,-566.3768"/>
<polygon fill="#000000" stroke="#000000" points="73.5001,-566.1476 70,-556.1476 66.5001,-566.1476 73.5001,-566.1476"/>
<text text-anchor="start" x="70" y="-576" font-family="Helvetica,sans-Serif" font-size="10.00" fill="#000000">not (reset_n == 1&#39;b0) &#160;&#160;</text>
</g>
<!-- RST&#45;&gt;RST -->
<g id="edge13" class="edge transition">
<title>RST&#45;&gt;RST</title>
<path fill="none" stroke="#000000" d="M98.0183,-624.8247C109.888,-625.1883 120,-623.5801 120,-620 120,-617.5387 115.2205,-616.0094 108.3762,-615.4121"/>
<polygon fill="#000000" stroke="#000000" points="108.0957,-611.9049 98.0183,-615.1753 107.9356,-618.903 108.0957,-611.9049"/>
<text text-anchor="start" x="120" y="-617" font-family="Helvetica,sans-Serif" font-size="10.00" fill="#000000">reset_n == 1&#39;b0 &#160;&#160;</text>
</g>
</g>
</svg>
