<?xml version="1.0" encoding="UTF-8" standalone="no"?>
<!DOCTYPE svg PUBLIC "-//W3C//DTD SVG 1.1//EN"
 "http://www.w3.org/Graphics/SVG/1.1/DTD/svg11.dtd">
<!-- Generated by graphviz version 2.40.1 (20161225.0304)
 -->
<!-- Title: state transitions Pages: 1 -->
<svg width="767pt" height="692pt"
 viewBox="0.00 0.00 767.00 692.00" xmlns="http://www.w3.org/2000/svg" xmlns:xlink="http://www.w3.org/1999/xlink">
<g id="graph0" class="graph" transform="scale(1 1) rotate(0) translate(4 688)">
<title>state transitions</title>
<polygon fill="#ffffff" stroke="transparent" points="-4,4 -4,-688 763,-688 763,4 -4,4"/>
<g id="clust1" class="cluster state regular">
<title>cluster_n_state</title>
<path fill="none" stroke="#000000" stroke-width="2" d="M20,-8C20,-8 739,-8 739,-8 745,-8 751,-14 751,-20 751,-20 751,-664 751,-664 751,-670 745,-676 739,-676 739,-676 20,-676 20,-676 14,-676 8,-670 8,-664 8,-664 8,-20 8,-20 8,-14 14,-8 20,-8"/>
<text text-anchor="start" x="360.3236" y="-657.2" font-family="Helvetica,sans-Serif" font-size="12.00" fill="#000000">n_state</text>
</g>
<!-- n_state -->
<!-- S0 -->
<g id="node2" class="node state regular">
<title>S0</title>
<polygon fill="#ffffff" fill-opacity="0.003922" stroke="transparent" stroke-width="2" points="315,-638 259,-638 259,-602 315,-602 315,-638"/>
<text text-anchor="start" x="279.6632" y="-616.2" font-family="Helvetica,sans-Serif" font-size="12.00" fill="#000000">S0</text>
<path fill="none" stroke="#000000" stroke-width="2" d="M271.3333,-603C271.3333,-603 302.6667,-603 302.6667,-603 308.3333,-603 314,-608.6667 314,-614.3333 314,-614.3333 314,-625.6667 314,-625.6667 314,-631.3333 308.3333,-637 302.6667,-637 302.6667,-637 271.3333,-637 271.3333,-637 265.6667,-637 260,-631.3333 260,-625.6667 260,-625.6667 260,-614.3333 260,-614.3333 260,-608.6667 265.6667,-603 271.3333,-603"/>
</g>
<!-- S0&#45;&gt;S0 -->
<g id="edge1" class="edge transition">
<title>S0&#45;&gt;S0</title>
<path fill="none" stroke="#000000" d="M315.0183,-624.8247C326.888,-625.1883 337,-623.5801 337,-620 337,-617.5387 332.2205,-616.0094 325.3762,-615.4121"/>
<polygon fill="#000000" stroke="#000000" points="325.0957,-611.9049 315.0183,-615.1753 324.9356,-618.903 325.0957,-611.9049"/>
<text text-anchor="start" x="337" y="-617" font-family="Helvetica,sans-Serif" font-size="10.00" fill="#000000">fifo_wptr &lt; 63 &#160;&#160;</text>
</g>
<!-- S1 -->
<g id="node3" class="node state regular">
<title>S1</title>
<polygon fill="#ffffff" fill-opacity="0.003922" stroke="transparent" stroke-width="2" points="191,-556 135,-556 135,-520 191,-520 191,-556"/>
<text text-anchor="start" x="155.6632" y="-534.2" font-family="Helvetica,sans-Serif" font-size="12.00" fill="#000000">S1</text>
<path fill="none" stroke="#000000" stroke-width="2" d="M147.3333,-521C147.3333,-521 178.6667,-521 178.6667,-521 184.3333,-521 190,-526.6667 190,-532.3333 190,-532.3333 190,-543.6667 190,-543.6667 190,-549.3333 184.3333,-555 178.6667,-555 178.6667,-555 147.3333,-555 147.3333,-555 141.6667,-555 136,-549.3333 136,-543.6667 136,-543.6667 136,-532.3333 136,-532.3333 136,-526.6667 141.6667,-521 147.3333,-521"/>
</g>
<!-- S0&#45;&gt;S1 -->
<g id="edge2" class="edge transition">
<title>S0&#45;&gt;S1</title>
<path fill="none" stroke="#000000" d="M259.4804,-601.8015C241.6606,-590.0175 218.2688,-574.5487 198.9811,-561.7939"/>
<polygon fill="#000000" stroke="#000000" points="200.7144,-558.7441 190.4427,-556.1476 196.8533,-564.583 200.7144,-558.7441"/>
<text text-anchor="start" x="233" y="-576" font-family="Helvetica,sans-Serif" font-size="10.00" fill="#000000">not (fifo_wptr &lt; 63) &#160;&#160;</text>
</g>
<!-- S1&#45;&gt;S1 -->
<g id="edge3" class="edge transition">
<title>S1&#45;&gt;S1</title>
<path fill="none" stroke="#000000" d="M191.0183,-542.8247C202.888,-543.1883 213,-541.5801 213,-538 213,-535.5387 208.2205,-534.0094 201.3762,-533.4121"/>
<polygon fill="#000000" stroke="#000000" points="201.0957,-529.9049 191.0183,-533.1753 200.9356,-536.903 201.0957,-529.9049"/>
<text text-anchor="start" x="213" y="-535" font-family="Helvetica,sans-Serif" font-size="10.00" fill="#000000">fifo_rptr &lt; 7 &#160;&#160;</text>
</g>
<!-- S2 -->
<g id="node4" class="node state regular">
<title>S2</title>
<polygon fill="#ffffff" fill-opacity="0.003922" stroke="transparent" stroke-width="2" points="133,-474 77,-474 77,-438 133,-438 133,-474"/>
<text text-anchor="start" x="97.6632" y="-452.2" font-family="Helvetica,sans-Serif" font-size="12.00" fill="#000000">S2</text>
<path fill="none" stroke="#000000" stroke-width="2" d="M89.3333,-439C89.3333,-439 120.6667,-439 120.6667,-439 126.3333,-439 132,-444.6667 132,-450.3333 132,-450.3333 132,-461.6667 132,-461.6667 132,-467.3333 126.3333,-473 120.6667,-473 120.6667,-473 89.3333,-473 89.3333,-473 83.6667,-473 78,-467.3333 78,-461.6667 78,-461.6667 78,-450.3333 78,-450.3333 78,-444.6667 83.6667,-439 89.3333,-439"/>
</g>
<!-- S1&#45;&gt;S2 -->
<g id="edge4" class="edge transition">
<title>S1&#45;&gt;S2</title>
<path fill="none" stroke="#000000" d="M150.1279,-519.8015C142.3936,-508.8668 132.4151,-494.7593 123.8087,-482.5916"/>
<polygon fill="#000000" stroke="#000000" points="126.4682,-480.2906 117.8361,-474.1476 120.7533,-484.3329 126.4682,-480.2906"/>
<text text-anchor="start" x="137" y="-494" font-family="Helvetica,sans-Serif" font-size="10.00" fill="#000000">not (fifo_rptr &lt; 7) &#160;&#160;</text>
</g>
<!-- S2&#45;&gt;S2 -->
<g id="edge5" class="edge transition">
<title>S2&#45;&gt;S2</title>
<path fill="none" stroke="#000000" d="M133.0183,-460.8247C144.888,-461.1883 155,-459.5801 155,-456 155,-453.5387 150.2205,-452.0094 143.3762,-451.4121"/>
<polygon fill="#000000" stroke="#000000" points="143.0957,-447.9049 133.0183,-451.1753 142.9356,-454.903 143.0957,-447.9049"/>
<text text-anchor="start" x="155" y="-453" font-family="Helvetica,sans-Serif" font-size="10.00" fill="#000000">(fifo_rptr &gt;= 8) &amp;&amp; (fifo_rptr &lt; 15) &#160;&#160;</text>
</g>
<!-- S3 -->
<g id="node5" class="node state regular">
<title>S3</title>
<polygon fill="#ffffff" fill-opacity="0.003922" stroke="transparent" stroke-width="2" points="141,-392 85,-392 85,-356 141,-356 141,-392"/>
<text text-anchor="start" x="105.6632" y="-370.2" font-family="Helvetica,sans-Serif" font-size="12.00" fill="#000000">S3</text>
<path fill="none" stroke="#000000" stroke-width="2" d="M97.3333,-357C97.3333,-357 128.6667,-357 128.6667,-357 134.3333,-357 140,-362.6667 140,-368.3333 140,-368.3333 140,-379.6667 140,-379.6667 140,-385.3333 134.3333,-391 128.6667,-391 128.6667,-391 97.3333,-391 97.3333,-391 91.6667,-391 86,-385.3333 86,-379.6667 86,-379.6667 86,-368.3333 86,-368.3333 86,-362.6667 91.6667,-357 97.3333,-357"/>
</g>
<!-- S2&#45;&gt;S3 -->
<g id="edge6" class="edge transition">
<title>S2&#45;&gt;S3</title>
<path fill="none" stroke="#000000" d="M106.7755,-437.8015C107.7905,-427.3976 109.0857,-414.1215 110.2315,-402.3768"/>
<polygon fill="#000000" stroke="#000000" points="113.7419,-402.4402 111.2295,-392.1476 106.775,-401.7605 113.7419,-402.4402"/>
<text text-anchor="start" x="109" y="-412" font-family="Helvetica,sans-Serif" font-size="10.00" fill="#000000">not ((fifo_rptr &gt;= 8) &amp;&amp; (fifo_rptr &lt; 15)) &#160;&#160;</text>
</g>
<!-- S3&#45;&gt;S3 -->
<g id="edge7" class="edge transition">
<title>S3&#45;&gt;S3</title>
<path fill="none" stroke="#000000" d="M141.0183,-378.8247C152.888,-379.1883 163,-377.5801 163,-374 163,-371.5387 158.2205,-370.0094 151.3762,-369.4121"/>
<polygon fill="#000000" stroke="#000000" points="151.0957,-365.9049 141.0183,-369.1753 150.9356,-372.903 151.0957,-365.9049"/>
<text text-anchor="start" x="163" y="-371" font-family="Helvetica,sans-Serif" font-size="10.00" fill="#000000">(fifo_rptr &gt;= 16) &amp;&amp; (fifo_rptr &lt; 23) &#160;&#160;</text>
</g>
<!-- S4 -->
<g id="node6" class="node state regular">
<title>S4</title>
<polygon fill="#ffffff" fill-opacity="0.003922" stroke="transparent" stroke-width="2" points="290,-310 234,-310 234,-274 290,-274 290,-310"/>
<text text-anchor="start" x="254.6632" y="-288.2" font-family="Helvetica,sans-Serif" font-size="12.00" fill="#000000">S4</text>
<path fill="none" stroke="#000000" stroke-width="2" d="M246.3333,-275C246.3333,-275 277.6667,-275 277.6667,-275 283.3333,-275 289,-280.6667 289,-286.3333 289,-286.3333 289,-297.6667 289,-297.6667 289,-303.3333 283.3333,-309 277.6667,-309 277.6667,-309 246.3333,-309 246.3333,-309 240.6667,-309 235,-303.3333 235,-297.6667 235,-297.6667 235,-286.3333 235,-286.3333 235,-280.6667 240.6667,-275 246.3333,-275"/>
</g>
<!-- S3&#45;&gt;S4 -->
<g id="edge8" class="edge transition">
<title>S3&#45;&gt;S4</title>
<path fill="none" stroke="#000000" d="M127.3014,-355.8907C135.7693,-346.1857 147.217,-334.68 159.466,-327 179.2337,-314.6058 203.918,-306.0053 224.1131,-300.432"/>
<polygon fill="#000000" stroke="#000000" points="225.1328,-303.783 233.9192,-297.8627 223.3586,-297.0116 225.1328,-303.783"/>
<text text-anchor="start" x="159" y="-330" font-family="Helvetica,sans-Serif" font-size="10.00" fill="#000000">not ((fifo_rptr &gt;= 16) &amp;&amp; (fifo_rptr &lt; 23)) &#160;&#160;</text>
</g>
<!-- S4&#45;&gt;S0 -->
<g id="edge10" class="edge transition">
<title>S4&#45;&gt;S0</title>
<path fill="none" stroke="#000000" d="M290.1596,-299.6802C315.2408,-307.3778 348,-319.933 348,-333 348,-579 348,-579 348,-579 348,-592.8617 337.0157,-602.3419 324.3694,-608.6631"/>
<polygon fill="#000000" stroke="#000000" points="322.7831,-605.5361 315.0005,-612.7251 325.5676,-611.9584 322.7831,-605.5361"/>
<text text-anchor="start" x="348" y="-453" font-family="Helvetica,sans-Serif" font-size="10.00" fill="#000000">(s_axi_valid == 1&#39;b1) &amp;&amp; (row_cnt &lt;= 62) &#160;&#160;</text>
</g>
<!-- S4&#45;&gt;S4 -->
<g id="edge12" class="edge transition">
<title>S4&#45;&gt;S4</title>
<path fill="none" stroke="#000000" d="M290.0183,-296.8247C301.888,-297.1883 312,-295.5801 312,-292 312,-289.5387 307.2205,-288.0094 300.3762,-287.4121"/>
<polygon fill="#000000" stroke="#000000" points="300.0957,-283.9049 290.0183,-287.1753 299.9356,-290.903 300.0957,-283.9049"/>
<text text-anchor="start" x="312" y="-301" font-family="Helvetica,sans-Serif" font-size="10.00" fill="#000000">not ((s_axi_valid == 1&#39;b1) &amp;&amp; (row_cnt == 63)) &#160;&#160;</text>
<text text-anchor="start" x="312" y="-289" font-family="Helvetica,sans-Serif" font-size="10.00" fill="#000000">not ((s_axi_valid == 1&#39;b1) &amp;&amp; (row_cnt &lt;= 62)) &#160;&#160;</text>
<text text-anchor="start" x="312" y="-277" font-family="Helvetica,sans-Serif" font-size="10.00" fill="#000000">not ((s_axi_valid == 1&#39;b0) &amp;&amp; (row_cnt == 63)) &#160;&#160;</text>
</g>
<!-- S5 -->
<g id="node7" class="node state regular">
<title>S5</title>
<polygon fill="#ffffff" fill-opacity="0.003922" stroke="transparent" stroke-width="2" points="153,-228 97,-228 97,-192 153,-192 153,-228"/>
<text text-anchor="start" x="117.6632" y="-206.2" font-family="Helvetica,sans-Serif" font-size="12.00" fill="#000000">S5</text>
<path fill="none" stroke="#000000" stroke-width="2" d="M109.3333,-193C109.3333,-193 140.6667,-193 140.6667,-193 146.3333,-193 152,-198.6667 152,-204.3333 152,-204.3333 152,-215.6667 152,-215.6667 152,-221.3333 146.3333,-227 140.6667,-227 140.6667,-227 109.3333,-227 109.3333,-227 103.6667,-227 98,-221.3333 98,-215.6667 98,-215.6667 98,-204.3333 98,-204.3333 98,-198.6667 103.6667,-193 109.3333,-193"/>
</g>
<!-- S4&#45;&gt;S5 -->
<g id="edge11" class="edge transition">
<title>S4&#45;&gt;S5</title>
<path fill="none" stroke="#000000" d="M233.792,-278.9154C220.9715,-272.6843 205.7465,-264.8817 192.519,-257 180.8046,-250.0199 168.4364,-241.7088 157.5317,-234.0304"/>
<polygon fill="#000000" stroke="#000000" points="159.3142,-231.0028 149.1404,-228.0457 155.2496,-236.7019 159.3142,-231.0028"/>
<text text-anchor="start" x="192" y="-248" font-family="Helvetica,sans-Serif" font-size="10.00" fill="#000000">(s_axi_valid == 1&#39;b0) &amp;&amp; (row_cnt == 63) &#160;&#160;</text>
</g>
<!-- E0 -->
<g id="node10" class="node state regular">
<title>E0</title>
<polygon fill="#ffffff" fill-opacity="0.003922" stroke="transparent" stroke-width="2" points="531,-228 475,-228 475,-192 531,-192 531,-228"/>
<text text-anchor="start" x="495.6632" y="-206.2" font-family="Helvetica,sans-Serif" font-size="12.00" fill="#000000">E0</text>
<path fill="none" stroke="#000000" stroke-width="2" d="M487.3333,-193C487.3333,-193 518.6667,-193 518.6667,-193 524.3333,-193 530,-198.6667 530,-204.3333 530,-204.3333 530,-215.6667 530,-215.6667 530,-221.3333 524.3333,-227 518.6667,-227 518.6667,-227 487.3333,-227 487.3333,-227 481.6667,-227 476,-221.3333 476,-215.6667 476,-215.6667 476,-204.3333 476,-204.3333 476,-198.6667 481.6667,-193 487.3333,-193"/>
</g>
<!-- S4&#45;&gt;E0 -->
<g id="edge9" class="edge transition">
<title>S4&#45;&gt;E0</title>
<path fill="none" stroke="#000000" d="M290.1007,-284.6572C314.7705,-278.0248 351.5265,-267.6904 383,-257 410.9302,-247.5132 441.9182,-235.3327 465.4072,-225.7489"/>
<polygon fill="#000000" stroke="#000000" points="466.7401,-228.9852 474.6614,-221.9493 464.0814,-222.5098 466.7401,-228.9852"/>
<text text-anchor="start" x="416" y="-248" font-family="Helvetica,sans-Serif" font-size="10.00" fill="#000000">(s_axi_valid == 1&#39;b1) &amp;&amp; (row_cnt == 63) &#160;&#160;</text>
</g>
<!-- S5&#45;&gt;S4 -->
<g id="edge13" class="edge transition">
<title>S5&#45;&gt;S4</title>
<path fill="none" stroke="#000000" d="M96.9877,-222.3075C80.3705,-231.3243 64.4457,-244.1787 75.089,-257 93.5556,-279.2456 174.2453,-287.4347 223.3712,-290.3886"/>
<polygon fill="#000000" stroke="#000000" points="223.4598,-293.8987 233.6382,-290.9577 223.8473,-286.9095 223.4598,-293.8987"/>
<text text-anchor="start" x="75" y="-248" font-family="Helvetica,sans-Serif" font-size="10.00" fill="#000000">s_axi_valid == 1&#39;b1 &#160;&#160;</text>
</g>
<!-- S5&#45;&gt;S5 -->
<g id="edge14" class="edge transition">
<title>S5&#45;&gt;S5</title>
<path fill="none" stroke="#000000" d="M153.0183,-214.8247C164.888,-215.1883 175,-213.5801 175,-210 175,-207.5387 170.2205,-206.0094 163.3762,-205.4121"/>
<polygon fill="#000000" stroke="#000000" points="163.0957,-201.9049 153.0183,-205.1753 162.9356,-208.903 163.0957,-201.9049"/>
<text text-anchor="start" x="175" y="-207" font-family="Helvetica,sans-Serif" font-size="10.00" fill="#000000">m_axi_ready == 1&#39;b0 &#160;&#160;</text>
</g>
<!-- S6 -->
<g id="node8" class="node state regular">
<title>S6</title>
<polygon fill="#ffffff" fill-opacity="0.003922" stroke="transparent" stroke-width="2" points="105,-134 49,-134 49,-98 105,-98 105,-134"/>
<text text-anchor="start" x="69.6632" y="-112.2" font-family="Helvetica,sans-Serif" font-size="12.00" fill="#000000">S6</text>
<path fill="none" stroke="#000000" stroke-width="2" d="M61.3333,-99C61.3333,-99 92.6667,-99 92.6667,-99 98.3333,-99 104,-104.6667 104,-110.3333 104,-110.3333 104,-121.6667 104,-121.6667 104,-127.3333 98.3333,-133 92.6667,-133 92.6667,-133 61.3333,-133 61.3333,-133 55.6667,-133 50,-127.3333 50,-121.6667 50,-121.6667 50,-110.3333 50,-110.3333 50,-104.6667 55.6667,-99 61.3333,-99"/>
</g>
<!-- S5&#45;&gt;S6 -->
<g id="edge15" class="edge transition">
<title>S5&#45;&gt;S6</title>
<path fill="none" stroke="#000000" d="M115.7451,-191.8759C108.7063,-178.0915 98.9048,-158.8968 90.9214,-143.2627"/>
<polygon fill="#000000" stroke="#000000" points="93.8914,-141.3828 86.2265,-134.0685 87.6572,-144.5663 93.8914,-141.3828"/>
<text text-anchor="start" x="106" y="-166" font-family="Helvetica,sans-Serif" font-size="10.00" fill="#000000">not (s_axi_valid == 1&#39;b1) &#160;&#160;</text>
<text text-anchor="start" x="106" y="-154" font-family="Helvetica,sans-Serif" font-size="10.00" fill="#000000">not (m_axi_ready == 1&#39;b0) &#160;&#160;</text>
</g>
<!-- S6&#45;&gt;S6 -->
<g id="edge16" class="edge transition">
<title>S6&#45;&gt;S6</title>
<path fill="none" stroke="#000000" d="M105.0183,-120.8247C116.888,-121.1883 127,-119.5801 127,-116 127,-113.5387 122.2205,-112.0094 115.3762,-111.4121"/>
<polygon fill="#000000" stroke="#000000" points="115.0957,-107.9049 105.0183,-111.1753 114.9356,-114.903 115.0957,-107.9049"/>
<text text-anchor="start" x="127" y="-113" font-family="Helvetica,sans-Serif" font-size="10.00" fill="#000000">m_axi_ready == 1 &#160;&#160;</text>
</g>
<!-- S7 -->
<g id="node9" class="node state regular">
<title>S7</title>
<polygon fill="#ffffff" fill-opacity="0.003922" stroke="transparent" stroke-width="2" points="194,-52 138,-52 138,-16 194,-16 194,-52"/>
<text text-anchor="start" x="158.6632" y="-30.2" font-family="Helvetica,sans-Serif" font-size="12.00" fill="#000000">S7</text>
<path fill="none" stroke="#000000" stroke-width="2" d="M150.3333,-17C150.3333,-17 181.6667,-17 181.6667,-17 187.3333,-17 193,-22.6667 193,-28.3333 193,-28.3333 193,-39.6667 193,-39.6667 193,-45.3333 187.3333,-51 181.6667,-51 181.6667,-51 150.3333,-51 150.3333,-51 144.6667,-51 139,-45.3333 139,-39.6667 139,-39.6667 139,-28.3333 139,-28.3333 139,-22.6667 144.6667,-17 150.3333,-17"/>
</g>
<!-- S6&#45;&gt;S7 -->
<g id="edge17" class="edge transition">
<title>S6&#45;&gt;S7</title>
<path fill="none" stroke="#000000" d="M96.752,-97.8015C109.0811,-86.4422 125.1264,-71.6588 138.6671,-59.1831"/>
<polygon fill="#000000" stroke="#000000" points="141.3204,-61.4976 146.3032,-52.1476 136.5772,-56.3495 141.3204,-61.4976"/>
<text text-anchor="start" x="127" y="-72" font-family="Helvetica,sans-Serif" font-size="10.00" fill="#000000">not (m_axi_ready == 1) &#160;&#160;</text>
</g>
<!-- S7&#45;&gt;S5 -->
<g id="edge18" class="edge transition">
<title>S7&#45;&gt;S5</title>
<path fill="none" stroke="#000000" d="M194.1602,-41.2311C220.2344,-48.7771 255,-61.3903 255,-75 255,-163 255,-163 255,-163 255,-182.7173 201.4419,-196.4864 163.0794,-203.8199"/>
<polygon fill="#000000" stroke="#000000" points="162.4121,-200.3838 153.2081,-205.6313 163.6756,-207.2688 162.4121,-200.3838"/>
<text text-anchor="middle" x="256.3895" y="-113" font-family="Helvetica,sans-Serif" font-size="10.00" fill="#000000"> </text>
</g>
<!-- E0&#45;&gt;S4 -->
<g id="edge20" class="edge transition">
<title>E0&#45;&gt;S4</title>
<path fill="none" stroke="#000000" d="M531.1874,-212.6856C570.593,-217.479 634.7023,-229.6887 610,-257 589.521,-279.642 386.4479,-288.3097 300.3087,-290.9856"/>
<polygon fill="#000000" stroke="#000000" points="300.053,-287.4916 290.1624,-291.2898 300.2628,-294.4885 300.053,-287.4916"/>
<text text-anchor="start" x="615" y="-248" font-family="Helvetica,sans-Serif" font-size="10.00" fill="#000000">(s_axi_valid == 1&#39;b0) &#160;&#160;</text>
</g>
<!-- E0&#45;&gt;E0 -->
<g id="edge19" class="edge transition">
<title>E0&#45;&gt;E0</title>
<path fill="none" stroke="#000000" d="M531.0183,-214.8247C542.888,-215.1883 553,-213.5801 553,-210 553,-207.5387 548.2205,-206.0094 541.3762,-205.4121"/>
<polygon fill="#000000" stroke="#000000" points="541.0957,-201.9049 531.0183,-205.1753 540.9356,-208.903 541.0957,-201.9049"/>
<text text-anchor="start" x="553" y="-207" font-family="Helvetica,sans-Serif" font-size="10.00" fill="#000000">(s_axi_valid == 1&#39;b1) &#160;&#160;</text>
</g>
</g>
</svg>
